<mxfile host="app.diagrams.net" agent="Mozilla/5.0 (Macintosh; Intel Mac OS X 10_15_7) AppleWebKit/537.36 (KHTML, like Gecko) Chrome/136.0.0.0 Safari/537.36" version="27.1.1">
  <diagram name="Page-1" id="AXLddjBOkNtREMI0aHdj">
    <mxGraphModel dx="2416" dy="2366" grid="1" gridSize="10" guides="1" tooltips="1" connect="1" arrows="1" fold="1" page="1" pageScale="1" pageWidth="1169" pageHeight="827" math="0" shadow="0">
      <root>
        <mxCell id="0" />
        <mxCell id="1" parent="0" />
        <mxCell id="sfCRKo0_vr712xjra1Gk-1" value="&lt;font face=&quot;Comic Sans MS&quot;&gt;&lt;span style=&quot;font-size: 30px;&quot;&gt;VIRSH&lt;/span&gt;&lt;/font&gt;" style="rounded=1;whiteSpace=wrap;html=1;fillColor=#dae8fc;align=right;strokeColor=#6c8ebf;sketch=1;curveFitting=1;jiggle=2;strokeOpacity=100;fillOpacity=50;" parent="1" vertex="1">
          <mxGeometry x="40" y="-800" width="1760" height="790" as="geometry" />
        </mxCell>
        <mxCell id="PvTTCeZeLut4xboafBoc-1" value="" style="group" vertex="1" connectable="0" parent="1">
          <mxGeometry x="40" y="50" width="560" height="450" as="geometry" />
        </mxCell>
        <mxCell id="sfCRKo0_vr712xjra1Gk-3" value="&lt;span style=&quot;font-family: &amp;quot;Comic Sans MS&amp;quot;; font-size: 30px;&quot;&gt;AMAZON&lt;/span&gt;&lt;div&gt;&lt;font face=&quot;Comic Sans MS&quot;&gt;&lt;span style=&quot;font-size: 30px;&quot;&gt;WEB&lt;br&gt;&lt;/span&gt;&lt;/font&gt;&lt;div&gt;&lt;span style=&quot;font-family: &amp;quot;Comic Sans MS&amp;quot;; font-size: 30px;&quot;&gt;SERVICES&lt;/span&gt;&lt;/div&gt;&lt;/div&gt;" style="rounded=1;whiteSpace=wrap;html=1;fillColor=#dae8fc;align=right;strokeColor=#6c8ebf;sketch=1;curveFitting=1;jiggle=2;" parent="PvTTCeZeLut4xboafBoc-1" vertex="1">
          <mxGeometry width="560" height="450" as="geometry" />
        </mxCell>
        <mxCell id="sfCRKo0_vr712xjra1Gk-4" value="" style="rounded=1;whiteSpace=wrap;html=1;sketch=1;curveFitting=1;jiggle=2;" parent="PvTTCeZeLut4xboafBoc-1" vertex="1">
          <mxGeometry y="60" width="200" height="120" as="geometry" />
        </mxCell>
        <mxCell id="sfCRKo0_vr712xjra1Gk-5" value="" style="shape=image;verticalLabelPosition=bottom;labelBackgroundColor=default;verticalAlign=top;aspect=fixed;imageAspect=0;image=https://www.dusuniot.com/wp-content/uploads/2022/08/chirpstack.jpg;clipPath=inset(33% 4.33% 33.67% 5% round 50%);" parent="PvTTCeZeLut4xboafBoc-1" vertex="1">
          <mxGeometry x="1.3400000000000318" y="83.58999999999992" width="198.8" height="73.09" as="geometry" />
        </mxCell>
        <mxCell id="sfCRKo0_vr712xjra1Gk-6" value="" style="shape=image;verticalLabelPosition=bottom;labelBackgroundColor=default;verticalAlign=top;aspect=fixed;imageAspect=0;image=https://miro.medium.com/v2/resize:fit:360/1*h78te1Nr-bUgqCtmFylC_g.png;clipPath=inset(7.81% 34.67% 10.42% 34%);" parent="PvTTCeZeLut4xboafBoc-1" vertex="1">
          <mxGeometry x="210" y="6.680000000000007" width="97.79" height="163.32" as="geometry" />
        </mxCell>
        <mxCell id="sfCRKo0_vr712xjra1Gk-8" value="" style="shape=datastore;whiteSpace=wrap;html=1;sketch=1;curveFitting=1;jiggle=2;" parent="PvTTCeZeLut4xboafBoc-1" vertex="1">
          <mxGeometry x="190" y="220" width="180" height="220" as="geometry" />
        </mxCell>
        <mxCell id="sfCRKo0_vr712xjra1Gk-9" value="" style="shape=image;verticalLabelPosition=bottom;labelBackgroundColor=default;verticalAlign=top;aspect=fixed;imageAspect=0;image=https://www.edureka.co/blog/wp-content/uploads/2016/10/1_B9CIOrxdROHvtdmouQA1_A-removebg-preview-300x225.png;" parent="PvTTCeZeLut4xboafBoc-1" vertex="1">
          <mxGeometry x="200" y="300" width="159.99" height="120" as="geometry" />
        </mxCell>
        <mxCell id="PvTTCeZeLut4xboafBoc-50" value="" style="group" vertex="1" connectable="0" parent="1">
          <mxGeometry x="1860" y="-480" width="320" height="360" as="geometry" />
        </mxCell>
        <mxCell id="sfCRKo0_vr712xjra1Gk-2" value="&lt;font face=&quot;Comic Sans MS&quot;&gt;&lt;span style=&quot;font-size: 30px;&quot;&gt;IMD&lt;/span&gt;&lt;/font&gt;" style="rounded=1;whiteSpace=wrap;html=1;fillColor=#fff2cc;align=right;strokeColor=#d6b656;sketch=1;curveFitting=1;jiggle=2;strokeOpacity=100;fillOpacity=50;" parent="PvTTCeZeLut4xboafBoc-50" vertex="1">
          <mxGeometry width="320" height="360" as="geometry" />
        </mxCell>
        <mxCell id="PvTTCeZeLut4xboafBoc-49" value="&lt;font style=&quot;font-size: 29px;&quot; face=&quot;Comic Sans MS&quot;&gt;CSV File&lt;/font&gt;&lt;div&gt;&lt;font style=&quot;font-size: 29px;&quot; face=&quot;Comic Sans MS&quot;&gt;Storage&lt;/font&gt;&lt;/div&gt;" style="shape=dataStorage;whiteSpace=wrap;html=1;fixedSize=1;sketch=1;curveFitting=1;jiggle=2;" vertex="1" parent="PvTTCeZeLut4xboafBoc-50">
          <mxGeometry x="43.24324324324324" y="72" width="190.27027027027026" height="216" as="geometry" />
        </mxCell>
        <mxCell id="PvTTCeZeLut4xboafBoc-97" value="" style="group" vertex="1" connectable="0" parent="PvTTCeZeLut4xboafBoc-50">
          <mxGeometry x="-86.49000000000001" y="-330" width="320" height="360" as="geometry" />
        </mxCell>
        <mxCell id="PvTTCeZeLut4xboafBoc-98" value="&lt;font face=&quot;Comic Sans MS&quot;&gt;&lt;span style=&quot;font-size: 30px;&quot;&gt;Shared&lt;/span&gt;&lt;/font&gt;&lt;div&gt;&lt;font face=&quot;Comic Sans MS&quot;&gt;&lt;span style=&quot;font-size: 30px;&quot;&gt;Air&lt;/span&gt;&lt;/font&gt;&lt;/div&gt;&lt;div&gt;&lt;font face=&quot;Comic Sans MS&quot;&gt;&lt;span style=&quot;font-size: 30px;&quot;&gt;DFW&lt;/span&gt;&lt;/font&gt;&lt;/div&gt;&lt;div&gt;&lt;font face=&quot;Comic Sans MS&quot;&gt;&lt;span style=&quot;font-size: 30px;&quot;&gt;API&lt;/span&gt;&lt;/font&gt;&lt;/div&gt;" style="rounded=1;whiteSpace=wrap;html=1;fillColor=none;align=right;strokeColor=#d6b656;sketch=1;curveFitting=1;jiggle=2;strokeOpacity=100;fillOpacity=50;" vertex="1" parent="PvTTCeZeLut4xboafBoc-97">
          <mxGeometry width="320" height="360" as="geometry" />
        </mxCell>
        <mxCell id="PvTTCeZeLut4xboafBoc-100" value="" style="aspect=fixed;sketch=0;html=1;dashed=0;whitespace=wrap;verticalLabelPosition=bottom;verticalAlign=top;fillColor=#2875E2;strokeColor=#ffffff;points=[[0.005,0.63,0],[0.1,0.2,0],[0.9,0.2,0],[0.5,0,0],[0.995,0.63,0],[0.72,0.99,0],[0.5,1,0],[0.28,0.99,0]];shape=mxgraph.kubernetes.icon2;kubernetesLabel=1;prIcon=api" vertex="1" parent="PvTTCeZeLut4xboafBoc-97">
          <mxGeometry x="40" y="100" width="166.67" height="160" as="geometry" />
        </mxCell>
        <mxCell id="PvTTCeZeLut4xboafBoc-51" value="" style="group" vertex="1" connectable="0" parent="1">
          <mxGeometry x="80" y="-760" width="1240" height="310" as="geometry" />
        </mxCell>
        <mxCell id="PvTTCeZeLut4xboafBoc-36" value="&lt;font face=&quot;Comic Sans MS&quot;&gt;&lt;span style=&quot;font-size: 30px;&quot;&gt;MDASH&lt;/span&gt;&lt;/font&gt;" style="rounded=1;whiteSpace=wrap;html=1;fillColor=#3CD184;align=right;strokeColor=#82b366;sketch=1;curveFitting=1;jiggle=2;strokeOpacity=100;fillOpacity=50;" vertex="1" parent="PvTTCeZeLut4xboafBoc-51">
          <mxGeometry width="1240" height="310" as="geometry" />
        </mxCell>
        <mxCell id="PvTTCeZeLut4xboafBoc-44" value="" style="group" vertex="1" connectable="0" parent="PvTTCeZeLut4xboafBoc-51">
          <mxGeometry x="332.6829268292683" y="30" width="201.6260162601626" height="227.5" as="geometry" />
        </mxCell>
        <mxCell id="PvTTCeZeLut4xboafBoc-45" value="INFLUX" style="strokeWidth=2;html=1;shape=mxgraph.flowchart.database;whiteSpace=wrap;sketch=1;curveFitting=1;jiggle=2;" vertex="1" parent="PvTTCeZeLut4xboafBoc-44">
          <mxGeometry width="201.6260162601626" height="227.50000000000003" as="geometry" />
        </mxCell>
        <mxCell id="PvTTCeZeLut4xboafBoc-46" value="" style="shape=image;verticalLabelPosition=bottom;labelBackgroundColor=default;verticalAlign=top;aspect=fixed;imageAspect=0;image=data:image/png,iVBORw0KGgoAAAANSUhEUgAAAXAAAACJCAMAAAACLZNoAAAA8FBMVEX///8Ayf9Fke0Ax/8Fxf4fsPcbs/glq/Uqp/QWt/kAw/4AvvwAwf0vo/P7/v8QvPs9l+87jewArfczn/I1i+wAqfYAufv0+f7n8PxBk+4wiOzL3vnW5fttpvCxzvfg9//e7/0mm/GUvfSEs/JZnO/C2fimyfZYne+32/q34fzY8f7q+v+b5v9Nlu6JtvOD3/+GzvrK8P+Z0/rC5vx2rPGbwvWNxPdmtvVnwfia1vt3yvqy6/9z2f9W1v9EqfNGtveq5/+Vyfd43/9ZyvsVgOt0v/fC6v2i2PuI0/tMsvVhyPpUvPhe1//g6/yU1Pup3/wh5WkBAAAKlUlEQVR4nO2bC1vaWBeFQwjhEghEgRBugggREBAFtYqKtaJVKf//38xe54SLeKkf028Uu995njYekkxc2V1n7ZOgKAzDMAzDMAzDMAzDMAzDMAzDMAzDMAzDMAzDMAzDMAzDMAzDMAzDMAzDMAzDMAzDMAzzv2PnMh99CX8V29lk1u2PzY++jr+FSlJVVctK7mzn7I++lr+BnqV6WMlWpcrm8v/FLJDe1o6lJpOWKHTHrY0/+qK+MLZrkch5pZbN5yoqae6ojmUl+vmPvrAvSqZFequo6O0seUm+76qWA6xEO/faQaXdg6PjN09bP9E3Uin9ZH/SrX87DTdWu7jG2d5gDxvNs73OeXe1k3wuhN4t6dptS/w9rhUc0jyRcKzey7HFjJXL5Ys3zmpfplLBYDCwQaTwx2rxp2tEtMgQW52I3x/ZWukkn4uxQ3rvTGfJSsvLKJliJQGc4otH2eXNzc2bN077ALmDJHRAEl7t6vY0v18TdX3uI75AaM2Tm1juPAn2XO+XMvNtmjwTid7Lh5Hg5d3XT9uA3qmHk5MHPSU0P13t8gYQvIkt6H2+2kk+EznEk8JC4ZiFAv2R23bRBhVdJ+G+GMt3Ifjh6+f9RYKn5Of2hBTf+Lba9Z2T4H5sNP0+n3+w2kk+EdWsqiaf1rDZspysUymKiFJ0Es6L+fCofHFz9UaH9EAFfundxzoEf+PmvIWm+TVR110IvrfaST4PRehdeTo2Vq32rO8ZO6+Y+G+6UTtABX7i/bAPwZsrXeBWlBylg62h5vNp6x5SatB7++nYWO1ZC1mQTLy9wplLcPB974cHEjy82nrBGQQ/w9aAKty32l37NNSSpHft6ViebkCvP/+5QCb+UjRolvK7nkWXDsUGBfPTWyGrnS/dwsJP6/X6hEZ0mjMf8IHZbBxOvDzebIy+TTC21Z0MvZN2iZH4v9ndvcFg0BlizoyII7yQ0hh2vn8/W0/hM2jil/wil6UbUHTnAzXylBcWVvI0ZZZvsXUQi5WPlMzVRShGBLHvbiwkMmEwRVHcVrZI7w0RUr7pemBD2kIjHNZ1TKTX6XDakLd0mI6n02Je7GjRaDQCIDhGTBFSzs79mEQ131rm8TwVeOtp9VZ/4AaMk/N//zkSvPr82CJCiphWj0nmmxuIHSJiEHY/FJxBlX0ICxc35zSg67qszokeDodHtDEKk8zCNBpxw4hfKxDXEGprEQ1zpg8fbkFwn98n8a9lPhQV3l8cKf6Q2mbniyimlXD6yjNuILi4LRcxQUgKHvpJQ5fzAk+R0LcQHLZgPpDeXgN0R3qHRZ1G4/G0kFkzDCOK2zEwSO0oiEBwUfMjzZPaL0VfyxLfIcWTC55Sy3qzZWHB2N1EovD80AvqMy/wryMTm3IhBafB/f1T6H25T5DQpyS4DoFs0lu/lye4h+BiaxiOx7HQMkCBo+a34lTf0eu90Wg0IEvRRBbs+EWBnw+7Xbi5f8WVmY+lYqk71exM8X5yWti1hWS+TZ7yfNZEYy+WrkqbEHvz4qpkNiC4XM+yxZzp7YuQIiJ5Y4M8XDZAZpz0jsjP4+QpA2WUJr2FthMylOij+GgU1fwR4TePEPxR1LXQfi0FL1JTn8llPYtuW7MOJ7cgcZUEf7ZMW4KjXGFrtww/EekkA8FlFDwkF0/dyn1tfSOwISJ5nSw84EUbWPid3GGSJlPZMjwDp2mUrMSQTt+hCo8uN/aPvnUNiHkLjlL8IfTsqfMwYmbn3WWGTLy2fGRutpJyhAovicFDcvGYXF45CM0ae6UECxfa/iLBN6T5jiD4RO5gxwmD/ovK22yQeUvpqbHXNLFg1YTIsupNERD/wK//32PSpFmBdZO8hdZiZ+LOg4npvrB+dQXBS9g6JsEvpFAHEFwMKjeYNb0iPEyR4HVs3UNwOYiQok/7xrs0FDfi0ia2ILi3aOInwUVdN7RZY99c41WsgmWhq+lbRffpxLi90O63E4nE8oHHZOEx3CEbIcV7DnGDnCJUNi8huLfvr2lIUSh563E5eEoFrk9toSlKPD2SP3VJcMPTlvSWIeUMgssbtIXNzr/7xT+KPkyc/m5ns9UnE2N1ofXB+lVp6UCElJ+zkHIkxsyfpLdUGXNm8MHb9wSrs9DWxpzpzaQGCZ6enq1pwFKmK4GTOAkute1SLIzIkKLNoiC0l93++pFLqkmYRy5bUJ32wusRmeTc0MfPWx97c/r0IU9z5qb0bRtzplS5FJqvpJgipGCrC8E934aFX09Pdw1LmQk+gKXI4h+S4FGhvQgpsiYQUvxruoplZ1ULa1f9gmLn2o7Vq3qam635+pVNlrK0wCVCygG2DjBnyhBTgoWLQaUOweve4YFpSJmQ4F5jvxWYhxTPwuNeMFGozYx62g7Q+GDY/BIhhWipFsx7R1bwuN/KukVR25Vpd2nm4eGbTw8TTx/ELREhRf72uxBcqixCipeUS6np04c7zJnyjt5hzvSKHY2PUFz6shmZhxQfQgqOaMK3v8vPfWsbUhRkb9WylUx2ZiCZoptt9cdKDfchU9128ZAtkVh6PH80Cyk/EVLk4BUElyqfkOAxb99Javr0YdrY25MwHEWX+zZI73REo5RiiJvRwJwptX+MTENKV/NPfbu7xnMmTY5JNZtXik8iil3tWc6Os91zLLddLRXwIHmp8zkmwS9ESIk9DSmeykESPODtuz8LKRvo7Ef1fegOwYW+zTgMZatLfWZaTI+zkNL1RUnviNB2jwSXvi0Wsdb3QUSGTLymuMvPdOyca7l9vExrFlDhS3rbF7PGHnOm6DgVMxiTS1e4DQuPexBSZPgWggcCelgKLtdkMWEiEEZR4hiB4FGt0/EZqG8tKp8+kOC+80Gn8+hba0cRJt5b7CunFGUflBF6L3+cIb3LIgvuLoQUFLh8b2K00NibJPGGCCkK1maBJ7hYxbrDyhUcfogSHype3yNXwyG49/RBrhF6K4XruVQoqViqU209H5cPfTIuRUL32fOH+SsSV2Th5ZIYFI29VHmXBA95jb2dmj59kKvhqPH7xj2pjpAy0dNybVYxo1ThYjXr2hBqR43zs1lI0bTpSjiWDNfWUIiatbwmLrAtuEgpAb2fP4y8csplaTPHZdqSg7fz9yZOIfi0sY+lUiF5H2wdL2DFf1F93lNUHJJ94BZE5Y6kfVqHf5jXVOwGyY3505Du0d3DqorA11nXSCjI4zHy83c2c3gSlKeE4hRWeNfpMjRv7J8wOmy853TN7ugF02h2z87OumutNmE7eK75TIV2G68IOa++WfgmJiz84ff7/Z2IF8Nb7aVvPTg5pQq9K6u8y1cPhYKpgz9zeV+PnHwDP9nqFeeTY94yi9B7+40DX+cnKrz0h67v61HdyVpSc3X2rYd+71/ovR8KhWYpnHkBaueTUnPLam1jBm2pquMsvyL03rPBULjAfwO186rwFtXKWu02vv+w/IrQu2kGQ6EV39z8q7Bz7Z1poUPvF97+ee+ZAvU/eF1fGTPfF+biUFZ89bs974C/5/l+zHGtkEwmW/z9tf8QO5f7Al+lYRiGYRiGYRiGYRiGYRiGYRiGYRiGYRiGYRiGYRiGYRiGYRiGYRiGYRiGYRiGYRiGYRjiH3bfAvOrrWLdAAAAAElFTkSuQmCC;clipPath=inset(4.46% 23.33% 6.25% 23.33%);" vertex="1" parent="PvTTCeZeLut4xboafBoc-44">
          <mxGeometry x="5.690334236675683" y="85.7093023255814" width="179.71441860465117" height="112.321511627907" as="geometry" />
        </mxCell>
        <mxCell id="PvTTCeZeLut4xboafBoc-47" value="" style="endArrow=classic;html=1;rounded=0;exitX=1;exitY=0.5;exitDx=0;exitDy=0;entryX=0;entryY=0.5;entryDx=0;entryDy=0;entryPerimeter=0;strokeWidth=2;dashed=1;strokeColor=#F97171;" edge="1" parent="PvTTCeZeLut4xboafBoc-51" source="PvTTCeZeLut4xboafBoc-37" target="PvTTCeZeLut4xboafBoc-45">
          <mxGeometry width="50" height="50" relative="1" as="geometry">
            <mxPoint x="-110.89430894308943" y="373.75" as="sourcePoint" />
            <mxPoint x="-60.48780487804878" y="323.75" as="targetPoint" />
          </mxGeometry>
        </mxCell>
        <mxCell id="PvTTCeZeLut4xboafBoc-37" value="" style="rounded=1;whiteSpace=wrap;html=1;sketch=1;curveFitting=1;jiggle=2;fillColor=default;" vertex="1" parent="PvTTCeZeLut4xboafBoc-51">
          <mxGeometry x="40.466341463414615" y="83.75" width="201.6260162601626" height="120" as="geometry" />
        </mxCell>
        <mxCell id="PvTTCeZeLut4xboafBoc-38" value="" style="shape=image;verticalLabelPosition=bottom;labelBackgroundColor=default;verticalAlign=top;aspect=fixed;imageAspect=0;image=https://upload.wikimedia.org/wikipedia/commons/2/2b/Node-red-icon.png;fillOpacity=100;" vertex="1" parent="PvTTCeZeLut4xboafBoc-51">
          <mxGeometry x="87.04195121951217" y="88.75" width="110" height="110" as="geometry" />
        </mxCell>
        <mxCell id="PvTTCeZeLut4xboafBoc-39" value="" style="rounded=1;whiteSpace=wrap;html=1;sketch=1;curveFitting=1;jiggle=2;" vertex="1" parent="PvTTCeZeLut4xboafBoc-51">
          <mxGeometry x="625.040650406504" y="88.75" width="201.6260162601626" height="120" as="geometry" />
        </mxCell>
        <mxCell id="PvTTCeZeLut4xboafBoc-40" value="&lt;span style=&quot;color: rgb(249, 113, 113); font-family: Helvetica; font-style: normal; font-variant-ligatures: normal; font-variant-caps: normal; font-weight: 400; letter-spacing: normal; orphans: 2; text-align: center; text-indent: 0px; text-transform: none; widows: 2; word-spacing: 0px; -webkit-text-stroke-width: 0px; white-space: nowrap; text-decoration-thickness: initial; text-decoration-style: initial; text-decoration-color: initial; float: none; display: inline !important;&quot;&gt;&lt;font style=&quot;font-size: 18px;&quot;&gt;HTTPS&lt;/font&gt;&lt;/span&gt;" style="text;whiteSpace=wrap;html=1;" vertex="1" parent="PvTTCeZeLut4xboafBoc-51">
          <mxGeometry x="252.03252032520322" y="113.75" width="70.5691056910569" height="40" as="geometry" />
        </mxCell>
        <mxCell id="PvTTCeZeLut4xboafBoc-41" value="" style="shape=image;verticalLabelPosition=bottom;labelBackgroundColor=default;verticalAlign=top;aspect=fixed;imageAspect=0;image=data:image/jpeg,/9j/4AAQSkZJRgABAQAAAQABAAD/2wCEAAkGBxMSEhUREhESFRUXFxcYFhUVFxUYFxsYGRcWFhgYFxoaHCshGBolGxcXITEhJiktLi4vGR8zODMsNygtLisBCgoKDg0OGxAQGy0lHyU1LS4yNzIrLS0vLS0vLS0tMi03Ky0uLS0tLys1LS8tLy0tLS0tKystLi0tKy0tLi0tLf/AABEIAOMA3gMBEQACEQEDEQH/xAAcAAEAAwEBAQEBAAAAAAAAAAAABQYHBAEDAgj/xABSEAABAwEFBAUIBgcDBw0AAAABAAIDEQQFEiExBkFRYQcTInGBMkJScpGhscEjNWKCwtEUM5KisrPwNHPSF0NUdMPh8RUWJCVTY4OTlKPT4uP/xAAaAQEAAwEBAQAAAAAAAAAAAAAABAUGAwIB/8QANBEAAQMCAgcHAwUBAQEAAAAAAAECAwQRBSESMUFRkdHwEzJhcYGhsSLB4RUjQlLxMxQ0/9oADAMBAAIRAxEAPwDcUAQBAEAQBAEAQBAEAQBAEBzXhbmQRmWR1Gj2k7gBvJXiSRsbdJ2o6wwvmejGJmpmV+bSTWh1Q50bAatY0kaaFxGrvhu4qjnqnyruQ1lJh8UDdV12qvWr5J/Zfa8kiG0nXJsp9wf/AIvbxUulrVVdCTjz5lbX4UiIskKeacuXDcXdWhQBAEAQBAEAQBAEAQBAEAQBAEAQBAEAQBAEAQBAEAQGW7W32bTLRp+iYSGcCdC/x3cu8qhq5+1flqTVz62Gvw6jSnjuveXXy5+JBKKWAQGjbCXyZYzC81fGBQnVzNB3kaeIVzQzq9ug7Wnx+DMYtSJE/tG6ney/nmWlTynCAIAgCAIAgCAIAgCAIAgCAIAgCAIAgCAIAgPy94aCSQANScgvirbWfURVWyFV2k2rhEUkcMmORwLQWg4RXInFocq0pXOigVFZHoK1i3XraXFFhk3aNfIlmpnnr4czPFTmmCAIDruu8X2eQSx0xAEUcCQQdQQCO/wC6RSujdpN1nGogZOzQfqLVZNvzpLADxLHU/dd+antxJf5N4dfcp5MDT+D+KfdORYbt2ns01A2TC4+bJ2T3DcT3EqZHVxSZItl8Ssnw6ohzVt03pn+eJyXrtnBES1lZXD0KYQebj8qrnLXRsyTNetp2p8JmlS7vpTx18OdiCl2+mPkwxD1i53wooi4i/Y1OuBYtwSJO85V4JzLXsze/wClQ9YQA8EteBWgIzFK7iCCrCmn7ZmltKaupf8AzS6CataEspBDCAIAgCAIAgCAIAgCA8JQEBeG2FliyDzIeEYqP2iQ32FQ5K6Jmpb+XPUWUOFVEmapop48tZCz9IB8yzinFz/kG/NRnYkuxvuT2YGn8n8E/J8G7fTb4Y/a4Lz+ov8A6odFwSL+y+x3WTb9h/WwObzY4O9xAXRmJJ/JvDPkR5MDcncei+aW5nRem28LWDqAZHkbwWtb61cyeQ9oXuXEGIn0ZrwOUGDSud+7knFV8uvQpF6XtNaDWWQkbmjJg7m6eOqrJZny99eRoIKWKBLRpbx28TiXI7hAEAQBAEAQBAEBcejaekkse4sDv2TT8QVjhrvqc3rrMpMcZeNj9y24/wCF+VuZsIAgCAIAgCAIAgCAIDnt/wCqk9R38JXl/dU6Q/8ARvmhi4WZQ3inqHwIAgCAIAgCAk7Js/apc2QPpxdRg/fIr4Lsymlfqavx8kWSup48nPT0z+LknHsNajqYW973fJpXdMPm8OP4Ii4zTJ/ZfROZ+zsHafTg/af/AIF9/Tpd6cV5Hn9ap9zuCczmn2NtbdGMf6jx+Ki8OoZk2X8l52OrMWpXa1VPNOVyHtlhliyljez1mkA9x0Pgo743M7yWJ0c0cvcci+pzrwdAgLV0dvaLQ/E4Bxjo0HfmC6nMYRl38FPw9USRb67FPjSOWBLJlfPw6uaKrkzAQBAEAQBAEAQBAEAQHj21BB3iiKfUWy3MSkjLSWnVpIPeDQrL20cl2G9RyOTSTaeIfQgCAIAgLVcWxkkoD5iY2HMN/wA4R45M8ankFPgoXPzfknv+Cnq8XZEujF9S+356zLrdtywQfqomg+kc3H7xz8FZxQRx91Chnq5p++702cCQXYjBAEAQHj2gihAIOoOYRUufUVUW6FavfYyCWrovoX/ZHYPe3d4U8VBmoI35tyX24FpTYvNHk/6k9+PMol7XRLZnYZW0r5Lhm13cfkc1VSwviWzkNFT1UVQ28a+m1DiY8tIc0kEEEEZEEZgjmuaKqLdDuqIqWXUajsnfv6VHR1BKygeOPB45H3HwV5SVHatz1p1cyOI0X/nfdvdXVyJ1SyvCAIAgCAIAgCAIAgCAyrbGxdVa5Msn/SN+95X7wcqCsj0Jl8c+vU2GGzdpTN3plw/FiFUYnhAEAQF92N2ZDQ20Tt7ZzjYfNG5xHpcBu79LajpLJ2j0z2eHXsZzE8RVyrDEuW1d/h5fPlruSsijCAIAgCAIAgCA+NrsrJWGORoc06g/1kea8vY16aLkuh7jkfG5HMWymZ7T7OOsrsTauhJydvafRd8jvVHVUywrdO6augr21KaK5OT38UI+57xdZ5myt3eUPSafKb/W8BcYZViej06QlVNO2eJY1/xd/Ww16zzNe1r2mrXAEHiCKhaNrkciKmoxL2KxytdrQ+i+nkIAgCAIAgCAIAgCArW3V09dCJWir4qnmWHyh4UB8DxUGvh02aSa0+C1wmq7KXQdqd87ORm+FUlzU3GFLi4wpcXLFsXcvXy9Y8VjjoSDo53mt5ganw4qbRQdo/SXUnyVmKVfYx6De872Tf8AY0tXhlAgCAIDkt15Qw/rZWM4AnM9w1K5yTMj7y2O0VPLL3GqpDy7aWUaGR3MMI/iooq4hDsvwJzcIqV12T15XDNtbKdTIO9n5EomIQ+PALhFQm7iSViv2zS5MmYSdGnsu8A6hXeOpif3XEWWinizc1fn3QkV3IoQHztEDZGlj2hzXChB0IXxzUcll1Hpj3McjmrZUMr2iuU2WXBmWOzjcd44HmN/gd6z9TCsL7bNnXgbCiq0qY9LamvrxLb0fW/FC6EnOM1b6rqn3HF7QrDDpdJisXZ8KU2MwaMqSJ/L5QtasSmCAIAgCAIAgCAIAgPhbrSIo3yHRjS72CtF4kejGK5dh0ijWR6MTatjHjnnlnwyHgNyy9zb6jyiH24ovlwavs9d36PAyOnapif6xzPs07gFpaaLso0bt2+Zjayft5lfs2eRJLuRQgPHuABJIAGZJ0A4lFW2an1EVVshRtoNr3OJjsxwt0MnnH1fRHPXuVNU4gqroxat5oKPCmtTTmzXdz64lSeSSSSSTqSak95OqrVW63UuksiWQ/NEPtxRBcFq+C5L3TtFPZ6AOxs9B5qKfZOrfDLkpUNZLFqW6bl6y6yINRQQz5qll3p1n1mX+5L7itLasNHDymHyhz5jn8FdU9SyZPp17jOVVHJTr9WrYpJqQRCL2juoWmFzPPHaYeDhoO46eKj1UHbRq3bs8yXRVK08qO2al8vwUfYycx2toOWMOYQe7EPHE0BU9C9Wzom+6dcDQYoxH0yrusvXE0xaAygQBAEAQBAEAQBAEBX9uJ8NlLfTe1v4z/CoGJP0Ybb1RPv9iywpmlUX3Iq/b7mdYVQXNOMKXBJbOWPrbTE06YsR7m9rPvoB4qRSM7SZqevDMi1svZwOd6ccjU1pjIBAEBR9tr5LnGzMPZb+sI3nXD3Dfz7lS4hVXXsm6k18jQYXSI1vbO1rq5lSoqu5ckzdezM84Dg0MYdHPqKjkNT7gpkNFLLnayePIg1GIwwra918OZNR7CDzrQfBlPi5TEwve72/JAXGl2M9/wAHNa9h5AKxysfycCw+GZHwXJ+GSJ3XIvtzO0eMxr32qnvyK7bLDJE7DIxzDz39x0I7lXyMfGtnpZSzimZKmkxboc+FeLnQ+tmmdG4PY4tc01BH9ZjkvTHqxdJq2U8vY17Va5Loppez18ttMdcg9tA9vPcRyP8AuWipalJ232prMpW0i077bF1EqpRDKFtBZOot8cjcmvex/jjAePn95UdUzsqprk2qi++fXiaOjl7ajcxdaIqe2XXgX1XhnAgCAIAgCAIAgCA/L3hoJJAAzJOQA5lfFVES6n1EVVshRNr75jnwMiJIaSS6lATSgpvO/NUNfVsls1mpDRYbSPhu5+tSt0VdctLiiXFyzbBQ1ne/0WU/acP8JVnhbbyq7cnz/hVYu+0SN3r8J+S9q9M6EBzXlauqifJ6LSQOJ3DxNFzmk7ONX7jrBH2kjWb1MocSSSTUkkk8ScyVk7quamySyJZC17H3CHUtEoqK/RtOhp5x456e3grbD6RHfuv9OfLjuKbEq5W/tRrnt5cy6q6KEIAgOe22NkzCyRoc08d3MHcea5yRNkbovS6HSKZ8TtJi2Uzq/wC5XWZ9M3Md5DvkftD3+4Z2qpnQOtrRdS9bTUUdW2oZfUqa062EXRRbku523Rb3WeVso0GThxadR8+8BdoJ1hkR6evkcKmBJ41Yvp5mpRyBwDmmoIBB4g5grUoqKl0Mg5qtVUXWRO0l0utAjLC0OY8Grq+SfKGQ5A+CiVdOsyN0daL7E2hqkgV2lqVPcmFMIIQBAEAQBAEAQHztE7WNL3kBoFSSvL3tY1XOXJD0xjnuRrUzUz2/r7faHUzbGD2WcebuJ5bves1V1jp1tqbu59ZGmpKNsCX1u38usyIoolyaKJcCiXBbNgB2pu6P4vVvhHef6fcpsY1M9fsXFXZRhAQe2TqWVw4uYP3gfkoGJranX0+SwwxL1CevwUKCEvc1g1c4NHeSB81nWppORqbbJxNG9+i1XLszNWgiDGtY0UDQAByAoFr2tRqI1NSGOc5XOVy61P2vR5CAIAgOG+rAJ4XRnXVp4OGh+XcSuFTCk0as4eZIpZ1hlR/HyMxLeIWU8zW3PKJcF+2LteOz4DrG4t+6cx8SPBaHDJdOHRXZl18GcxSLQm0k25k+rErQgCAIAgCAIAgCApG196dY/qWnsMPa5v8AyGnfXks9idVpv7NupNfiv4+S/wANptBnaO1r8fn4K7hVZctLjClxcYUuLjClxcsmw0lJXt9Jlf2T/wDZWuEvtK5u9Pj/AEqsWbeNrty/P+F1V+UIQEPtZDisz6ebhd7HCvuqoOJNV1O62yy+5Ow5+jUJ43QpF1mk0ROgkZ/EFnoHWlYvinyX9RnE5E3L8GnrXmSCAIAgCAIDNb9hw2iUD0yf2u181k6tqNneib/nP7mqpH6UDF8PjI4MKj3JNyz7CyUkkZxaD+ySPxK2wh31ub4J7f6VOLNuxrvH5/wuSviiCAIAgCAIAgCA57wlc2J7mAucGktAzzpllvXKd7mRuc1LqiZHWFrXSIjlslzMqVz15rG3NYMKXFxhS4uMKXFxhS4udlz2nqpmSbgaO9U5H2Vr4KRSzdlM166tvkvVzhUx9rE5vVzSVrzKhAfiWMOaWuFQQQRyIoV5c1HIrV1KfWuVqoqa0M2vGwuhkdG7doeI3H+uayE8LoZFjds+N/W01cMySsR6F4uC9BPGKnttFHj8Q5FaShqknjz7ya+fqZ6splhflqXVyJRTSIEAQBAEBnV/uxWmU/ap7AG/JZKtdeoevj9kQ1FGloGp4EfhUW5JuWHYlv0zz9j8TfyVthH/AFcvh9ysxVf2kTx+yl0WhKEIAgCAIAgCAIAgK3f2zuMmWEAO1czQHmOB+Pxpq7DdNVki17U3+Xj8lrSV+j9EmrfuKm9hBIIII1ByI7wqBUVFsusuUcipdDyi+C4oguKILiiC5eNmLx62LA49tlAebdx+R7ua0+GVXaxaC95vxsUoK+n7OTSTUvyTKsiAEBHXzdLbQ2hycPJdw5HiFDrKNtQ2y5KmpethKpap0DstW1CmzWaayvDjVhGjxm0+Oh7j7FnHxz0j7rku/Z14LwLxskVSy2tN20mrJtZlSWP7zD+E/mrGLGcv3G8OS8yBJhf9Hcef4PvNtbGB2Y5CftYWj2gn4Lq/GokT6Wr62T7qc24XIq/U5PdeR33HbZZmudJGGCvYpXMePhnvUyinlmarpG2TZ199pHq4Y4nI1jr7yTU0iHztMwYxzzo0EnwC8SPSNivdqTM9MYr3I1Npmkji4lx1JJPeTUrFOcrlVy61z4mraiNRETYfmi+H250WC2PheHsNDvG4jgeS7QTvhfpsX8nOaJsrdFxoN32xs0bZG6HUbwd4K1tPO2aNHt2mamiWJ6sU6F2OQQBAEAQBAEAQBAcV43VFN5bc9zhk4eO/uKi1NHFUJ9aZ79vXmSIamSHurlu2Fctmy0jc43NeOB7LvyPtCpZsHlbnGqOTgvL4LOPEo3d9Le6EVabBJH5cbmjSpGVeFdFXS08sXfaqdbybHPHJ3Vuc+FcbnS4wpcXPvYbS6J4kZqN24jeDyXWCd0L0e3Wnv4HOWNsrFa4vl325szA9p7xvB4Fa6mqWTs02f4Z2aF0TtFx1KQcQgPHNBFCARwK+KiKllPqKqZocElyWc5mFvhVvuBUR2H0y/wAE9MvgkJWTp/Jfk/dnumFhq2JteJzI7q6L1HRQRrdrEvx+Ty+qmelnOU7VKOAQFY2rvKv0DTwLz7w35nwVBi1Wi/sN9fsn34Fvh1Pb913pzKzhVHctbjClxcYUuLlh2PtNHuiOjhiHeNfaP4VcYNNaR0a6lz9U5/YrcSjuxH7suutpbFoylCAIAgCAIAgCAIAgCA+FtsrZWOjdoR7DuI7iuM8LZo1jdtOkUixvRyFCtVmdG8scMx7+BHIrGTROierH606uaOORsjUc3UfKi53PdxRLi597Fa3xOxsNDvG4jgRvXaCofA/TYufspzlibK3RcW+7L6jloD2H+id/qnf8VpqTEop8lydu5Lt+fApJ6N8WaZoSasSIEAQBAEBA3zfwaCyIgu0Ltze7if65Klr8UaxFZCt3b9ic1+PYsaWiV31Sat28qhzzKzly5FEuLnlF8vYH1s9lfIaMa53cPidAukUb5VtGir5c9R4fI1iXctizXHcJjcJZD2hWjRoKimZ3mh/4rQ0GGLE5JZFzTUibOurlTV1qSN0GaifVyVwQBAEAQBAEAQBAEAQBARV/3c2RhfkHMBIPIZkHkqzE6Ns0av1K1L38Ny9ZcSZRzrG/R2KU+iyVy8uKILiiC4woLnfZL3mjyD6jg7Mfn71NhxGohyR103Ln+fcjSUsUmtOBJw7T+nF4tPyI+as48d/uzgv2XmRHYd/Vx0DaaL0JfY3/ABLt+uQf1d7czl+nSb09+R8ptpx5kbj6xA+FVzfjrbfQxfVUT4ue24cv8ncCItt7Sy5OdRvotyHjvKqqjEJ58nLZNyZfn7eBNipY480TPxOGihEm4oguetZU0AqTkAF9S6rZD4q2zUuNzXUImdoAvObtDTgB3LXUFC2CP6ku5dfL0KOqqVkf9K5ISQCsSIeoAgCAIAgCAIAgCAIAgCAICO2gfSB/Og9pFfdVV2LP0KR1ttk4qhKo23mQp9Fjrl3cUS4uKJcXFEuLiiXFxRLi4olxcUS4uKJcXFEuLnrIySAASToBqvTUVyo1qXVQrkRLqWi5bn6vtvoX7hub/vWow7Dex/ck73x+f8TxqKqr7T6W6vkmFcEEIAgCAIAgCAIAgCAIAgCAIAgIzaJv0J72/Giqsa/+VfNPkl0S/u8SqYVkLlxcYUuLjClxcUXy59GFfbny4wpcXGFLi4wpcXGFLi4wpcXJ3ZaLtPdTQNAPfWvwCv8AAWXe99tyfP4K/EHZNQsK0pWBAEAQBAEAQBAEAQBAEAQBAEAQHNeUOOJ7d5GXeMx7woldCs1O9ia7ZeaZp7nWB+hIilOWC00Lw+kVnc7yWuPcCV2iikl/5tVfJPueXPa3vLYkrLcL3ZvIaOAzd+QVvTYJK/OVdFOK8k9/IiSVrU7uZOQWKNjcIaKb651766rRQ0cMTOza1Lbdt/MgPme92kqnwlueF3mU9Uke7RRpMJpH56NvJVT21ex0bVyptOV2zzNz3+OE/JRFwCHY93tyOqV79qIfiTZ4UOF5ruqBSq5PwFuiug9b7L2sem163zTIg3xlpIIoRqCs49rmOVrksqFgjkVLofmi83PoolwWu5LNgiFdXdo+OnuotphNOsNMl9bs19dXtb1Keqk05MtmR3qzIwQBAEAQBAEAQBAEAQBAEAQBAEAQH4ETfRb7AvCRMTUicD1pO3n7Xs8hAEAQBAEBx2672S65O3OGvjxCgVuHRVSXdk7enWadId4Z3R6tRCWi6JG6DEOLfy1WZqMIqYtSaSeHLXwuWDKqN22x+7qu0vdV7SGt1BFKnhnuXXDMNfNLpStVGt3pa67s9m/geaioRrbNXNSyLYFUEAQBAEAQBAEAQBAcl43lDZ245pWRt3FxAqeAGpPIICr2npLsTTRvXSc2soP3y0oDqu7pAsMpDTKYif8AtW4R4uzaPEoC0McCAQQQcwRoRyQHqAIAgCAIAgCAIAgPC4DUhAA4HQoD1AEAQBAEAQBAEAQBAEAQFe2z2nbYYq0DpX1EbDplq532RUd9QOYAymwXdbL0mc+pefPleaMYNwFNOTWj80BdLJ0VQgfS2mVzv+7DGD94OQHFe/Ra4Aus0+IjzJQAT3PblXvHigPl0bC3RWp1mLXNiZnMyQGjK1wlnBxPDIipzyKA1VAEAQBAEAQBAEBmfSVtdIyQ2OzvMeEAyvaaOq4Ygxp80YSCSM86ZUNQK3ZtgrdM0SmIDFn9I8B5rvIOY8c0Bp+w1wfoVlEbg3rHEvkppiOQAPJoaPbxQFhQBAEAQBAEAQBAEAQBAEBhu1NpfbrxcxprWQQRcAGuwV7icTvFAbLc11x2WFkEQo1o13uO9zuJJzQHagCAIAgKNePSGILY+zSQARsdR0uMk0w4q4AzM1NKVQEdaelcYvo7IS3cXyhp8WhrgPagLRsZtG+3RvldAImtcGtIeX4jSrvNFAKt46nggOLaTpAs9lcYmAzSjJwaQGNPBz88+QBpvogK03pVlrnZYyOAe4H24fkgJ3/KPA6zSTMYetZgrA92EkOe1hLXAEOAxV0rlmAgJfYzaQ2+J8piEeGTBQOx17LXVrhFPK9yAyra6bDeczyMQbM1xad4bhNPECiAtP8AlYP+hf8Av/8A5IDQLtt4ls8docAwPiZIQTUNDmB5BdlkK65ICm310nQxuLLPEZqZYycDPu5Eu9g5EoCMs3Sq+v0llYW78DyCPaKH3ICZvXpHhZDHNAzrcTi17HO6t7CAD2hhdWvEZZalAWi4Lx/SbPFOW4Osbiw1xUzIpWgr7EBTLB0osLniaz9W1rSQWPL3OcHNAYBhAFQSak0yQHBN0qyYuxZWBv2nkn2htB70BZtltu4LW4ROaYZTo1xq13JjsqnkQDwqgLYgInaHaKCxMDpnZnyWNze6nAcOZoOaAolp6VX1+jsrA3djeST7AKe9ASlx9JsMjgy0RmAnIPDsUf3jQFvsI4kIDjtvSi5kj2CyNcGvc0O645hriAf1e+lUBVdg/rODHrjkrX0urk/EgNzQFG6RbXbo3w/oYtFC1+Pqoy8Vq2mKjTTegKh/yrfXC3f+nd/8aA+dovy942l8jrYxo1c+EtaKmgqTHQZkBAWboxvy02maUTzOka2MEAhuRLuQG4FAUzbkf9YWgAVPWDL7rUBotw9HVljjb+kM62UgFxLnBoO9rQ0ioHE5nlogPNtra27rEILK0RmRxazCTVoNXSOBOdc6V3Fw4IClbB7H/ppdJIS2BhocPlPdQHCDuABFTzAHEAaM7YS7y3B+jAcw6TF+1iqgMx232VNhkbhcXwvrgcdQRq11Mq7wd+fBAXXod/ss39+f5caApe0bA69ntcAQbRGCDoQSwEHwQGs/81bD/odn/wDLZ+SApPSpe/Vtju+GjGBjXPDchhHZjjFNGjCTTk1AfjYfYFk0TbTasRa8VjiBLRh3OeRnnqADprWtABaLw2AsMjcLYeqdufG5wI8CSD4hAZFf9zvsk7oJKEtzDho5p8lw4d24gjcgNo2E+r7N6nzKAxS7LvdaLQyBhoZH4ancMyTzoATTkgNksmwlhZHgMAflm95JeedQez92iAzTbrZ39Anb1TndW8Y4zXtNc0ioryJaQdcxwqQNWuK+hJYWWuQ0pEXSEcWVEhA72uQGPtE96W3XtyHfm2OMZ09Vo9p5lAahd3R/YYmgOi611M3yF1T3AGjfAe1AVvbbYCOOJ1osgc3AMT4iS4YRmXMJzBGpBOmlKUIGboCx7T2d9hvFzmjSQTx8C1zsYHdXEzwKA2e6LyjtMLJ4jVrhXmDvaeBByKA7EAQGcdLV+tDG2Jhq4kPlpuaM2NPMmju5o4hAdfRHdZjs8locKGZwDfUZUA+Li72BAUnav61l/v2fgQG5IDM+maM/9Fd5o64eJ6oj3A+xATvRXK02BrW0q18gf3lxcK/dc1AW9AUXpflaLJG00xGYFo35MfiPdmB94ID8dDv9lm/vz/LjQFNv/wCt3f6zH/ExAbegMU6UoyLe+vnRxlvdhw/FrkBr1yzNfZ4Xs8kxsLacMIoEB2oDJOl+VptUTRTE2Ltdxc4tB958UBfdhPq+zep8ygMp2C+soPXk/lyIDdEBmXTPrZO6f/YIDvuSMuuBwbr1Np90kpI9iArvRHK0W1wNMToXBveHMcQOdBX7pQGwIDnvCZrIpHvpgaxxdXTCASfcgP5vboEBum22y7bdEMJDZmVMbjpnqx32TlnuIB4ggZZdl7Wy65nMoWGvbhkFWO3Ysj7HNOdN4QF0s3SrFT6SzSh32HMcPa7D8EBG310oSPaW2aIRV/zjyHOHc2mEHma9yAiNktk5rfJ10uMQk4nyurikNcwwnNxO92gz35IDaIIWsa1jGhrWgNa0aAAUAHKiAxHav61l/v2fgQG5ICF2vuIW2zOhqA8HFG46B4rSvIgkHkUBkVyXzabsne3AQchLC/IGmhqNDwcKjPeEBdHdKsWGossuOmhcwNr62v7qAoV/XxPbpHTyCoYB2Wg4I2FwaO6riBU6nwAA0Pod/ss39+f5caApt/8A1u7/AFmP+JiA29AUzpI2Ydao2zQtrNED2Rq9hzLR9oHMd5G9AUfZLbaWxDqXs6yIE9gnC5hr2sJppWtWnfwzQFjt/So3Aeosz8e4yloaOdGkl3dUd6Azq3TSzOdaJcTi95rIRkXUHZB0yFMhoKckBt+wn1fZvU+ZQGU7BfWUHryfy5EBuiAzLpn1sndP/sEBZejcA3bACKg9bUf+NIgM32nuKa7bSJIi5seLFBKN2/A77QGVD5Q8QALPd3So3ABaLO7GNXREYTzo4jD3VKAgNrNuJbaOojYY4iRVoOJ7zXIGg0rTsjfvKAqckZaS1wIIJBB1BBoQedUB/SiA47zuuG0NwTxMkG7EKkc2nVp5hAZVtPcFnhlLI48Irpjefi4oC07H7KWMsErrO1zvtlzh+y4lvuQF3ApkEB6gKTemzlmfaXSuiq8vDiccgzFKZB1NwQF2QBARl93JZ7S2k8LX0BoTUOG/Jwo4DkCgM0sOz1mdaerMdWVpTHJ8cVUBoF43BZm2R9nbC1sRLC5ratJIe0glwOImoGZO5Ae7I3ZFZ43thZhBfiIxOdnhaPOJ3AICIt2ztmdazM6Kr+sa7Fjk8oEUNA6m4bkBdEAQFb2r2csszHTSQNMgHljE1x3dotIxeNUBUNkdmrLNKRJFiAqQC59MuNHZ+KAt201xWeSOKN0TcDC7A1pcwNqBoGEICXuOzNigjjYKNa2gFScqnec0BV7i2bs0VoZKyKj2lxBxyHVrgci6mhKAuyAre2Fzw2gxdczFhx4e09tMWCvkkV0CAktnbGyGzsijbhY3FQVJ1e5xzJJ1JQHdabOyRpZIxr2uFC1wBBHMHVAZjtfs1ZYZQI4sIOZAc+mfCrsvBAW3ZLZ2ywsbNHA0SEeWS5zhu7JcTh8KICEtuylkdI9zoSS57iT1kupcSfO4oD//2Q==;" vertex="1" parent="PvTTCeZeLut4xboafBoc-51">
          <mxGeometry x="671.6263414634146" y="93.75" width="107.58" height="110" as="geometry" />
        </mxCell>
        <mxCell id="PvTTCeZeLut4xboafBoc-42" value="" style="endArrow=classic;html=1;rounded=0;exitX=1;exitY=0.5;exitDx=0;exitDy=0;strokeWidth=2;dashed=1;strokeColor=#F97171;exitPerimeter=0;" edge="1" parent="PvTTCeZeLut4xboafBoc-51" source="PvTTCeZeLut4xboafBoc-45">
          <mxGeometry width="50" height="50" relative="1" as="geometry">
            <mxPoint x="569.5934959349593" y="143.75" as="sourcePoint" />
            <mxPoint x="625.040650406504" y="144" as="targetPoint" />
          </mxGeometry>
        </mxCell>
        <mxCell id="PvTTCeZeLut4xboafBoc-43" value="&lt;span style=&quot;color: rgb(249, 113, 113); font-family: Helvetica; font-style: normal; font-variant-ligatures: normal; font-variant-caps: normal; font-weight: 400; letter-spacing: normal; orphans: 2; text-align: center; text-indent: 0px; text-transform: none; widows: 2; word-spacing: 0px; -webkit-text-stroke-width: 0px; white-space: nowrap; text-decoration-thickness: initial; text-decoration-style: initial; text-decoration-color: initial; float: none; display: inline !important;&quot;&gt;&lt;font style=&quot;font-size: 18px;&quot;&gt;HTTPS&lt;/font&gt;&lt;/span&gt;" style="text;whiteSpace=wrap;html=1;" vertex="1" parent="PvTTCeZeLut4xboafBoc-51">
          <mxGeometry x="544.390243902439" y="113.75" width="70.5691056910569" height="40" as="geometry" />
        </mxCell>
        <mxCell id="PvTTCeZeLut4xboafBoc-48" value="&lt;font face=&quot;Comic Sans MS&quot;&gt;&lt;span style=&quot;font-size: 22px;&quot;&gt;OSN SYNC&lt;/span&gt;&lt;/font&gt;" style="rounded=1;whiteSpace=wrap;html=1;glass=0;sketch=1;curveFitting=1;jiggle=2;" vertex="1" parent="PvTTCeZeLut4xboafBoc-51">
          <mxGeometry x="897.2357723577235" y="83.75" width="201.6260162601626" height="120" as="geometry" />
        </mxCell>
        <mxCell id="PvTTCeZeLut4xboafBoc-72" value="" style="group" vertex="1" connectable="0" parent="1">
          <mxGeometry x="100" y="-402.5" width="820" height="365" as="geometry" />
        </mxCell>
        <mxCell id="PvTTCeZeLut4xboafBoc-53" value="&lt;font face=&quot;Comic Sans MS&quot;&gt;&lt;span style=&quot;font-size: 30px;&quot;&gt;WWW1&lt;/span&gt;&lt;/font&gt;" style="rounded=1;whiteSpace=wrap;html=1;fillColor=#f8cecc;align=right;strokeColor=#b85450;sketch=1;curveFitting=1;jiggle=2;strokeOpacity=100;fillOpacity=50;" vertex="1" parent="PvTTCeZeLut4xboafBoc-72">
          <mxGeometry x="-20" width="840" height="365" as="geometry" />
        </mxCell>
        <mxCell id="PvTTCeZeLut4xboafBoc-60" value="&lt;font face=&quot;Comic Sans MS&quot;&gt;&lt;span style=&quot;font-size: 22px;&quot;&gt;utdmint.info&lt;/span&gt;&lt;/font&gt;" style="rounded=1;whiteSpace=wrap;html=1;sketch=1;curveFitting=1;jiggle=2;" vertex="1" parent="PvTTCeZeLut4xboafBoc-72">
          <mxGeometry x="280" y="48.75" width="200" height="120" as="geometry" />
        </mxCell>
        <mxCell id="PvTTCeZeLut4xboafBoc-68" value="" style="group" vertex="1" connectable="0" parent="PvTTCeZeLut4xboafBoc-72">
          <mxGeometry x="50" y="48.75" width="200" height="120" as="geometry" />
        </mxCell>
        <mxCell id="PvTTCeZeLut4xboafBoc-58" value="" style="rounded=1;whiteSpace=wrap;html=1;sketch=1;curveFitting=1;jiggle=2;fillColor=default;" vertex="1" parent="PvTTCeZeLut4xboafBoc-68">
          <mxGeometry width="200" height="120" as="geometry" />
        </mxCell>
        <mxCell id="PvTTCeZeLut4xboafBoc-67" value="" style="shape=image;verticalLabelPosition=bottom;labelBackgroundColor=default;verticalAlign=top;aspect=fixed;imageAspect=0;image=https://www.dallascounty.org/Assets/uploads/images/comm-district-1/shared-air/shared-air-button-clickhere.png;clipPath=inset(0% 16% 46% 15.67%);" vertex="1" parent="PvTTCeZeLut4xboafBoc-68">
          <mxGeometry x="2.92999999999995" y="40.829999999999984" width="189.51761904761904" height="37.43690476190476" as="geometry" />
        </mxCell>
        <mxCell id="PvTTCeZeLut4xboafBoc-69" value="&lt;font face=&quot;Comic Sans MS&quot;&gt;&lt;span style=&quot;font-size: 22px;&quot;&gt;davidlary.info&lt;/span&gt;&lt;/font&gt;" style="rounded=1;whiteSpace=wrap;html=1;sketch=1;curveFitting=1;jiggle=2;" vertex="1" parent="PvTTCeZeLut4xboafBoc-72">
          <mxGeometry x="500.00000000000006" y="48.75" width="200" height="120" as="geometry" />
        </mxCell>
        <mxCell id="PvTTCeZeLut4xboafBoc-70" value="&lt;font face=&quot;Comic Sans MS&quot;&gt;&lt;span style=&quot;font-size: 22px;&quot;&gt;cisnerosres&lt;/span&gt;&lt;/font&gt;&lt;span style=&quot;font-size: 22px; font-family: &amp;quot;Comic Sans MS&amp;quot;; background-color: transparent; color: light-dark(rgb(0, 0, 0), rgb(255, 255, 255));&quot;&gt;.&lt;/span&gt;&lt;div&gt;&lt;span style=&quot;font-size: 22px; font-family: &amp;quot;Comic Sans MS&amp;quot;; background-color: transparent; color: light-dark(rgb(0, 0, 0), rgb(255, 255, 255));&quot;&gt;utdallas.edu&lt;/span&gt;&lt;/div&gt;" style="rounded=1;whiteSpace=wrap;html=1;sketch=1;curveFitting=1;jiggle=2;" vertex="1" parent="PvTTCeZeLut4xboafBoc-72">
          <mxGeometry x="50" y="195" width="200" height="120" as="geometry" />
        </mxCell>
        <mxCell id="PvTTCeZeLut4xboafBoc-71" value="&lt;font face=&quot;Comic Sans MS&quot;&gt;&lt;span style=&quot;font-size: 22px;&quot;&gt;mintsdata.circ&lt;/span&gt;&lt;/font&gt;&lt;span style=&quot;font-size: 22px; font-family: &amp;quot;Comic Sans MS&amp;quot;; background-color: transparent; color: light-dark(rgb(0, 0, 0), rgb(255, 255, 255));&quot;&gt;.&lt;/span&gt;&lt;div&gt;&lt;span style=&quot;font-size: 22px; font-family: &amp;quot;Comic Sans MS&amp;quot;; background-color: transparent; color: light-dark(rgb(0, 0, 0), rgb(255, 255, 255));&quot;&gt;utdallas.edu&lt;/span&gt;&lt;/div&gt;" style="rounded=1;whiteSpace=wrap;html=1;sketch=1;curveFitting=1;jiggle=2;" vertex="1" parent="PvTTCeZeLut4xboafBoc-72">
          <mxGeometry x="280" y="195" width="200" height="120" as="geometry" />
        </mxCell>
        <mxCell id="PvTTCeZeLut4xboafBoc-87" value="" style="group" vertex="1" connectable="0" parent="1">
          <mxGeometry x="1030" y="350" width="820" height="365" as="geometry" />
        </mxCell>
        <mxCell id="PvTTCeZeLut4xboafBoc-88" value="&lt;font face=&quot;Comic Sans MS&quot;&gt;&lt;span style=&quot;font-size: 30px;&quot;&gt;WWW1&lt;/span&gt;&lt;/font&gt;" style="rounded=1;whiteSpace=wrap;html=1;fillColor=#f8cecc;align=right;strokeColor=#b85450;sketch=1;curveFitting=1;jiggle=2;strokeOpacity=100;fillOpacity=50;" vertex="1" parent="PvTTCeZeLut4xboafBoc-87">
          <mxGeometry x="-20" width="840" height="365" as="geometry" />
        </mxCell>
        <mxCell id="PvTTCeZeLut4xboafBoc-89" value="&lt;font face=&quot;Comic Sans MS&quot;&gt;&lt;span style=&quot;font-size: 22px;&quot;&gt;utdmint.info&lt;/span&gt;&lt;/font&gt;" style="rounded=1;whiteSpace=wrap;html=1;sketch=1;curveFitting=1;jiggle=2;" vertex="1" parent="PvTTCeZeLut4xboafBoc-87">
          <mxGeometry x="280" y="48.75" width="200" height="120" as="geometry" />
        </mxCell>
        <mxCell id="PvTTCeZeLut4xboafBoc-90" value="" style="group" vertex="1" connectable="0" parent="PvTTCeZeLut4xboafBoc-87">
          <mxGeometry x="50" y="48.75" width="200" height="120" as="geometry" />
        </mxCell>
        <mxCell id="PvTTCeZeLut4xboafBoc-91" value="" style="rounded=1;whiteSpace=wrap;html=1;sketch=1;curveFitting=1;jiggle=2;fillColor=default;" vertex="1" parent="PvTTCeZeLut4xboafBoc-90">
          <mxGeometry width="200" height="120" as="geometry" />
        </mxCell>
        <mxCell id="PvTTCeZeLut4xboafBoc-92" value="" style="shape=image;verticalLabelPosition=bottom;labelBackgroundColor=default;verticalAlign=top;aspect=fixed;imageAspect=0;image=https://www.dallascounty.org/Assets/uploads/images/comm-district-1/shared-air/shared-air-button-clickhere.png;clipPath=inset(0% 16% 46% 15.67%);" vertex="1" parent="PvTTCeZeLut4xboafBoc-90">
          <mxGeometry x="2.92999999999995" y="40.829999999999984" width="189.51761904761904" height="37.43690476190476" as="geometry" />
        </mxCell>
        <mxCell id="PvTTCeZeLut4xboafBoc-93" value="&lt;font face=&quot;Comic Sans MS&quot;&gt;&lt;span style=&quot;font-size: 22px;&quot;&gt;davidlary.info&lt;/span&gt;&lt;/font&gt;" style="rounded=1;whiteSpace=wrap;html=1;sketch=1;curveFitting=1;jiggle=2;" vertex="1" parent="PvTTCeZeLut4xboafBoc-87">
          <mxGeometry x="500.00000000000006" y="48.75" width="200" height="120" as="geometry" />
        </mxCell>
        <mxCell id="PvTTCeZeLut4xboafBoc-94" value="&lt;font face=&quot;Comic Sans MS&quot;&gt;&lt;span style=&quot;font-size: 22px;&quot;&gt;cisnerosres&lt;/span&gt;&lt;/font&gt;&lt;span style=&quot;font-size: 22px; font-family: &amp;quot;Comic Sans MS&amp;quot;; background-color: transparent; color: light-dark(rgb(0, 0, 0), rgb(255, 255, 255));&quot;&gt;.&lt;/span&gt;&lt;div&gt;&lt;span style=&quot;font-size: 22px; font-family: &amp;quot;Comic Sans MS&amp;quot;; background-color: transparent; color: light-dark(rgb(0, 0, 0), rgb(255, 255, 255));&quot;&gt;utdallas.edu&lt;/span&gt;&lt;/div&gt;" style="rounded=1;whiteSpace=wrap;html=1;sketch=1;curveFitting=1;jiggle=2;" vertex="1" parent="PvTTCeZeLut4xboafBoc-87">
          <mxGeometry x="50" y="195" width="200" height="120" as="geometry" />
        </mxCell>
        <mxCell id="PvTTCeZeLut4xboafBoc-95" value="&lt;font face=&quot;Comic Sans MS&quot;&gt;&lt;span style=&quot;font-size: 22px;&quot;&gt;mintsdata.circ&lt;/span&gt;&lt;/font&gt;&lt;span style=&quot;font-size: 22px; font-family: &amp;quot;Comic Sans MS&amp;quot;; background-color: transparent; color: light-dark(rgb(0, 0, 0), rgb(255, 255, 255));&quot;&gt;.&lt;/span&gt;&lt;div&gt;&lt;span style=&quot;font-size: 22px; font-family: &amp;quot;Comic Sans MS&amp;quot;; background-color: transparent; color: light-dark(rgb(0, 0, 0), rgb(255, 255, 255));&quot;&gt;utdallas.edu&lt;/span&gt;&lt;/div&gt;" style="rounded=1;whiteSpace=wrap;html=1;sketch=1;curveFitting=1;jiggle=2;" vertex="1" parent="PvTTCeZeLut4xboafBoc-87">
          <mxGeometry x="280" y="195" width="200" height="120" as="geometry" />
        </mxCell>
        <mxCell id="PvTTCeZeLut4xboafBoc-96" value="&lt;font face=&quot;Comic Sans MS&quot;&gt;&lt;span style=&quot;font-size: 22px;&quot;&gt;mintsdata.circ&lt;/span&gt;&lt;/font&gt;&lt;span style=&quot;font-size: 22px; font-family: &amp;quot;Comic Sans MS&amp;quot;; background-color: transparent; color: light-dark(rgb(0, 0, 0), rgb(255, 255, 255));&quot;&gt;.&lt;/span&gt;&lt;div&gt;&lt;span style=&quot;font-size: 22px; font-family: &amp;quot;Comic Sans MS&amp;quot;; background-color: transparent; color: light-dark(rgb(0, 0, 0), rgb(255, 255, 255));&quot;&gt;utdallas.edu&lt;/span&gt;&lt;/div&gt;" style="rounded=1;whiteSpace=wrap;html=1;sketch=1;curveFitting=1;jiggle=2;" vertex="1" parent="1">
          <mxGeometry x="1300" y="240" width="200" height="120" as="geometry" />
        </mxCell>
        <mxCell id="PvTTCeZeLut4xboafBoc-114" value="" style="group" vertex="1" connectable="0" parent="1">
          <mxGeometry x="1280" y="-400" width="290" height="360" as="geometry" />
        </mxCell>
        <mxCell id="PvTTCeZeLut4xboafBoc-102" value="&lt;font face=&quot;Comic Sans MS&quot;&gt;&lt;span style=&quot;font-size: 30px;&quot;&gt;Shared&lt;/span&gt;&lt;/font&gt;&lt;div&gt;&lt;font face=&quot;Comic Sans MS&quot;&gt;&lt;span style=&quot;font-size: 30px;&quot;&gt;Air&lt;/span&gt;&lt;/font&gt;&lt;/div&gt;&lt;div&gt;&lt;font face=&quot;Comic Sans MS&quot;&gt;&lt;span style=&quot;font-size: 30px;&quot;&gt;DFW&lt;/span&gt;&lt;/font&gt;&lt;/div&gt;&lt;div&gt;&lt;font face=&quot;Comic Sans MS&quot;&gt;&lt;span style=&quot;font-size: 30px;&quot;&gt;API&lt;/span&gt;&lt;/font&gt;&lt;/div&gt;" style="rounded=1;whiteSpace=wrap;html=1;fillColor=#9999FF;align=right;strokeColor=#6c8ebf;strokeOpacity=100;fillOpacity=50;sketch=1;curveFitting=1;jiggle=2;" vertex="1" parent="PvTTCeZeLut4xboafBoc-114">
          <mxGeometry width="290" height="360" as="geometry" />
        </mxCell>
        <mxCell id="PvTTCeZeLut4xboafBoc-112" value="" style="aspect=fixed;sketch=0;html=1;dashed=0;whitespace=wrap;verticalLabelPosition=bottom;verticalAlign=top;fillColor=#2875E2;strokeColor=#ffffff;points=[[0.005,0.63,0],[0.1,0.2,0],[0.9,0.2,0],[0.5,0,0],[0.995,0.63,0],[0.72,0.99,0],[0.5,1,0],[0.28,0.99,0]];shape=mxgraph.kubernetes.icon2;kubernetesLabel=1;prIcon=api" vertex="1" parent="PvTTCeZeLut4xboafBoc-114">
          <mxGeometry x="40" y="114.79041916167665" width="126.04" height="121" as="geometry" />
        </mxCell>
        <mxCell id="PvTTCeZeLut4xboafBoc-115" value="" style="group" vertex="1" connectable="0" parent="1">
          <mxGeometry x="960" y="-400" width="275" height="360.00000000000006" as="geometry" />
        </mxCell>
        <mxCell id="PvTTCeZeLut4xboafBoc-74" value="" style="strokeWidth=2;html=1;shape=mxgraph.flowchart.database;whiteSpace=wrap;sketch=1;curveFitting=1;jiggle=2;fillColor=#fff2cc;strokeColor=#d6b656;" vertex="1" parent="PvTTCeZeLut4xboafBoc-115">
          <mxGeometry width="275" height="360.00000000000006" as="geometry" />
        </mxCell>
        <mxCell id="PvTTCeZeLut4xboafBoc-75" value="" style="shape=image;verticalLabelPosition=bottom;labelBackgroundColor=default;verticalAlign=top;aspect=fixed;imageAspect=0;image=data:image/png,iVBORw0KGgoAAAANSUhEUgAAAOEAAADhCAMAAAAJbSJIAAAAw1BMVEX///8zZ5EAAAAwZZAtZI8gXosqYo7x8fEcXIokX4zr8fVEdZtlZWX29vYaW4r6+vokJCTBwcGamprMzMy5ubna2toYGBji4uJERERegqKmpqbT09Pq6uqurq7m5uaBgYGetMdMTEyRkZE8PDxcXFx4eHjH095vb29PT08sLCyUlJSJiYm0xNPb4+p+fn4+Pj4SEhLN2OKnusyOp76AnLZxka4zMzN7mbRVfqFAcZgpKSkeHh6it8ldgaNpjKvk6/EAUYSnwDitAAAcXElEQVR4nO1dC1fiyrIWEkISSDK8RF4KisgIqIgoqAP3//+qm6rqTjohj8YEZ3vW1DpnbXVC6K+rul5dXX129o/+0T/6R//oH/0Yclq1bv2qOn18fH19nI4f6t1a2/nbg/oCOZZlhcddbg9m46diFP2+u++V/8pAgfqtXqNWaw6ajUajdWmlPd0bzKrj0c2rSxejcfX2utlouR/q1ccfkeA8epp2W98CSKTW4OExNK6n99FttxY9307t9nf04F9/JaPj9Fr/Rk6Wm9WksUzrIZhOcyyHovjxOhrfzu7r3e797HZ88RoU3HHje/DVEuExurhq9Nnz/evoBRbCNr5q9tphQS+3atfVd/+px+bp8Q1uAgM7v5lWq3fV6U3ESpoO2u4YrwIwZvfdAaxcl0d3j97fbweXCSJotbtT79GbE2OsnXtf9f4waASHdVkb3E+D/Hqd+dNfbxxo/nKtOz2/llEi1sCbj2k7LzSHdMmn8qla68c91G/UxwdKZTQ4Qk04aE8OpqN9y992/7Xhp9NAerhOuysu1js5VW8tls+rt12nsgXa/Nm9reZLU3igf81F9TRsZFN4IanQnAaT0Opl8B9MlyJM53xbMHRD0zRVIVLdn0t6ofI233sPlR8YxkEGIHEDHpF81sSxLufD1Xrn0no1nE8WB65Kb/b0258Qa/m5rhi2DmSXtp3V81JEar5oWuGQFBfmduiBbI+YXOQN0HolpecNafG5Lth6yZ10Ff9nGLptF9xRL8zABzlo87lT0g2XP3zgLo/cj1RWc//5/YsehdF92LA7E/6mLlM4aS7UceRcBGTDHG5KhhoxFHfUduHPamKGPr9ca6Wo54FD6s4HufijK1GPFQqavp2zh9pksG5y9XHIJ2EKw3zTjJhxMJgltTJc+p9edGJ4wwZvqOsFf3auR84ETEbJw3hH9ipWnx9PZLVJYzgrW0vCR6NRDF1f0YedFzsJH4G0NxP2XWanFPd6xd6w9VgnSc2NizWBg4tKKW24RGqBZG+5NaQetzuc68P4b1CNZ3qmSQ5FTmuxjG8jJTqPXH4RpCj74z5Q0Eprth6X0WsWSd85wqyP8kGIUl/HHz9tyeEWDOLIUJf9AGJkHNpX4uVaK+wFiLkYjYY/Wc926gpkpNNYV9IzgqToO2Kj1YkXbVWjJUuCWs8BIRoKdJMmcar8gLQ1zcgxHKQPFpjG2cVDVAx6pi4q+AyELJzBT6aUykBSUQVMYrViPCn6J4OYoNF0gojLZ5oZIZjXcxxwJ1XpB0ewl5+RwIff6IvXCR8v0SrHoDRr4N/ywpW5tMhpO/zoRnpGQsOnj5/t4j/PNDXKVzUjQowogIVORVbkFA09lM+jFyEno4Nf7SRoVHWLRmOU3e4751wlH8FCFLP9FzkoQDTV+Ek1XuAJDFmz5TXQ6vTgJ2kWFmzU+OsMCAsGCeoyYSnqIKd9GN5VJoQgpE/ww0LashELF1+WUaQSqZvneIVqoM4FU/aeBaDzyufoRZolNq7CTCx0SR+eJb9GQ0lGg5EFYdvzSKUHrOI3y7M8hhSyOI4SG2hsQf91PXfkizTgumopLXT6PHnupSGS/xn7xYoG/17zg4Kv0RV3SYfy1hum1kwPIVNJ3eAQXuK+WYfV0MialrrgtkLanyE98/w1dyYEYQivMgsxk6WDX9PKipB/3tnK8qSEy2cjGxQmEumsOEOMCxUVRffrAMvcGu7lpQ58jUUeLPTkNGa6cMFfZoygGlxTSSsaFU31Eas2kSgijtHLyMOsCEGVPoEqncsOuYSa9E8uQuqShu7RLvJ1uUhpl3sMK1mE6LGZkskqCYTkH0W+z9c0GRDCzsMN/CDv0cDT8k56KtloFCOtK1qLXkZdesvN4VpS7GjOV5nNvf9CTIcsI5hIFr+RMbiAVPcYfkgIRgNE6Uxp05JOioEWI3Jhw4JoZvRpRp7Bl+QhSo6T1ScViaRifshEpQJ2qZ4xGQUuzS38IGnBFQNcNnkfVoZUYJVzqOnUPzAwLwXxXQhxXqVNS/r73MiC4sBDVUfMHWeMnh6PRKiuD0cD27lfAKcauq6pqqrZqJ4nB3JhDPkIf2dA6DnekiZcw+0mvmgVzdCNbaWyVXXpzQsGTy+sh5PFYr/fLxa4Neoc7OehA9x/yphsm/LPS2oaQZUqhr19mS9My3Esc/HcseUxqvZ6crC0DqQIE3ro0lxnQHistUBHyoSvL1U+94FX7Xey+sfYLCKG8hZGqMBfm1mDJ8iCXOD75RBiuLPQDOVtefiyuVx8wjdWQxT2TSnumGVNYtzzdSznpZCbsbRX+8i3LWVe4gM0F8vJZLJc7GlLIYSQlvw4a0YYPO8PWOiyMTvYrr2Az5zMP4fPfFVJ+KtsQ+Bsv6oUDKxLMQw0C2EeYnToZN4lbR4ZH27FGgxn8qJAPQrUoawJdXp+Cu37mbWGqhvNKMHzxK2wpsEgBhXNbRaELR7jL+SkdOurwMWLggUYqosQ6m0wuZEaVhEac2uUOs9L11CAhiPDF0q5K1v44yCroiEpaOJ3SiGs8KqeCa8vMXbP8/lwZ2sl5GKaxqI9nY6msroS0MsG/hxehrhtcZt9i9TbHd3I6EGlQp9abHipgbZarjedl7lrK9CNTJF2esFEV9lqxI0LNO1WyJunXAIM71e2eowxN/lSASIN0Hnxrbsx6bjrZT/fLDZoSazkF5DX9+aaFTKJJjgPGASHt0H8fZlxJoAU5IPoSeWWFNzUE+s11LcJitNqvisN4YfolIs3IfCM48qLUpi7r5ps4WkdXhrySxW0hs2MKQwg3BaA4qqJVOoFdWnAshjPk818svucaLSTkmxYcckRn0vbTQXLAEgwPoMzTBqp6m39fZ16fCnv5ZJLgDAYreov+/l8/+n+DRXtYYwgEq4uk9issO1RWpMhFUXbNr+ybjydMUlHOZAzF/tDEJq+6WjAAYNcuqTPCzz0Px9pDk0+/VlLhpwbvn8oE10wry3MJsYNPWL4YYRDeCSY5qF4JTgx5PncZ7aGQFXue0upmhKyKeZJA5mRuFlOVi4YjFK8Enwn2Ypp9jKFM5bpgR+SFxAfTRJCMgWJZod2V4NrjuKVoBrQQUgxoX+RFSDlI0HVmDIJNDtpqZGGT5QFMjdBNx/NYTBhSkko1PPZDya0PVmXSYImIqS904i8oIBQReseeMQAfgWNFW3YTLO7bEi/ub6S8WpwKyEWIYYDyX4bxUTiZCoYbQTXCL4Id/4eswNEVYPlJp8SqgYRxu41EocTpZ1UjbgQIxCSJu1mTdFw8msVJBZiMg9JKya+hqITEY+iHSCkWojHHBwaJDSrUP5npgNMWYek45MnCrXxmVi1iXozqGk8TforB4AUoaAwSNh8PREh2e5kq0PhrphTPrAWJMn1fDQp0A1PhUhko9DiR22FCaNPfgvF7uJiPbD4VFuKZ3guY8Z8HF27bzqHhShh86O9tiDClFfYOH7BDSXZ9lPeNAe4eG5yAehXJ5oSBjHC8z4SIcmgUCAe/hT9fptDaMjJ8gQ+vf4S48PYrScaW8pqpg06wfsOxxa+McztyMwFz2SkLkTS9bF+Ge2TpWW+SR/5pRGh+JC820EegZNHUNv2hNFrWhRMmfbYiaCxp5lViulN7yUhd9b29UxuZ9e9hZi6e50SPaDOSN8Cp/jdnycVfuWiT5OYp545Y3E+LsS0fVJaMrF7jTj9+1SEFDmYnq6xRTeH/Jm7HPUM0IVsFIxiaMUqJAnP258J3+rbggmi8Kqfq545Y1tY8EOaa+ptH0YTji4xeiIiJu6566YLrCd1fJ2rnjljUTDUrDgpQ0NvI/bsEIUEMvt0xESuTku+w65oaEo+su4ahgktIqajUrYdSokLzYhMmkURW4nsN93P6tNCR1OR/biTSBfcjU/ZACSEcc+gtKWk9fmLSJ0SEwUVjHHG2TuXqfyo6+WFk801SWkcn7eHYVAcERMdYjfyEBGSR9fM11Qg+UWcyREUrZiYjTiqwZMs4ySbSCLj7T1ROpZYmHdPhSe+x5NsL0jTxay0owrA2T4dGh5PlxIL0QH5lXeDrCtuf5ILuKkQK04dwb9Jbn/wU7YTkE1uRhkLL3K29kT+uY3kmUeXKtrikSaVrjUuaMgl2IzT2EtJkdIB57wBkr3AioBEc0bpzmh1RAfaZPHxGVkaLA8+NBQdN3uRhXkcbw4R7tTBrEqkOyNPn5AAS20NMMLZcplIi7ujGgIL8236gTTwopVETUHBxSTC5lMO7ZiDJqRXljYqGogqEdb7iVhIvu4D/JTsdZVQFg83AMhjO+5AG01KBaPqZYnEY3ASRYo0kvO+SZQOmUjpJMnqOD4rJNhDnNcSKjHn6SSKFKnLxTTlwLOB8/sWVpkYVuyPPGdCPhpWl27JBajnlwY+oL6vTZONPjLR2gbBkKI/9qwQrUSgub32BpHxYHM8gZY+Tz+1pWBSOGwxMG8tf9ydk84LTTdkazCF+HoigLTG0egnK0SNzpstVOEpSuLKbO0EiZdGzf8Ps3SYnckv/xQmy4urUyoxSU7PFgVfrRxuRkgSKaizDXmpmGDL2kEhgarcN7VSzLZNjVustdfxCWXMkW6MIpCBZn+BJpEa4vlbFQ5QnghrnqJOqxK1WWHhvEIYye/60nEvteJ9P6W50dhb/V73gfq2jQf5gbR+8cAzbUEpvFXQ2WRn64ZG53llD4cFyfD0KbX8u5rdVqdCu89i8Xd+C/OBR/qpzpfuDevMmny+dVCTal873q0zgWgUYym3hEbL0zUpAme8RXx6udltCsd35NG0Ddn9eIBUWpgLXXi6JrHyhHXt6B9+rzmvHGf0FeOFlcVbV0FQN9XrWq/Vq597054HDbylnuSdaBtc++XfxdlhStNZHaNvlIJwbKPcuL+qjsfV21m92S5z/YLHgvJLf8PL3uHdZvxC1CoY5WDLkOJNvRdWdce0N9OiDs+EyHOYcyG/GDDWOVVYp70LT56eboL9Y+Q7ZpR4OfskwSKgEcvNVUXPF8uQrDjzTW7pWaC7NVVmPa+fkbsyVSs0WejrnS3Xit9UUaQ94s6hy5BId55yjmGiTUO5FQHS17/Zmk4HTmRDDPL1JnCsQS1VhkufkdZiMlwXiMOjXKWUUsN4QN+K7MfBjNdMBIiHGc5Qw5BXvk9sDSq8DMWBeRfQS1OtdHY7sDm2rtsqKSFy5XIDyJxTZEqUTaRyfN4klog0+TMNlOJYqbMbLqiDunBoLaxCIb+qv9ByRxudsVFUkFoeEyMcG2bpa4cc5H4eJSbk/Dcqe4gKZNx1uRSGk+teKWMi+t8HaSUWGfYEfLdkEb0WM1pU3X0MRZc9KIqmV7jeod6QOe9hYMEcuUkhy8YM4SUD9z7u8sJBq8KZRrHjUQht/5y0qhruWlxxI+kwNydPGQWa+YvrT/DMNvpXDvj977dN4W4RU+guSJ3cpKSUEO5fKpoNmsUuFTbr1cQ/29j4LS70HEloSGsWhKHSzjSUJl/UAgZ6suUAFfaMHEJ+1tIx94vlcrEPdjnv3/GFkDdArp/x64RkDIt6b8PZzInQvpoHQnLHpv1M2yF5rdlPkzvFCnLaRufJGIU5WPVAxt2cvyh+72r+TNrpLk5G9IlnuFCB86/4mkeN8CFdCmbA7NiqopYKft9b9tBi/rbRxC7emuJ5XnKH+7E4J5yIKfe6Vf9+idmpLhIaiPIxWW83n/RNYCcwm2m9bY2SJjSLUFSb93mWRkhNks7H981aowc39gxm48CtLKMTXq5zF7kEer4Dtdy5/OOtORWtpO2Yii/LIyx5LYQi6fGkd86wLvvBowDMlWFJk/38pbNVXT1vFDb+9Q1NzHZKNdmg3da47Mzdqe/UKdNlLMJ9KM41++4nP6FpmeZ+b5r+YrkuyiMs+I0fw1Qd5NhQP4645/JAGK2ucJFOXOqrd1M8AiFVY8xC4D7uuqdRn4d0ye+herqb3T4Gh1GNUgEt9GjlW8GoXnvSbnc2u5rVB7XGCa/QiaDytHhAXX4TzbTbCngg7a54s4gUQjL48CXfIJIxVA/h+9UT//YLbiirNRq15v341WevNEI61v3Kev79JfJ8Q2Ig/i0hNX0cQvSAwAl+/av3A/a7dLXTzZ2nXqywcvDp6ZiGRViCAamv7KdEM5LVb1/2A9Pcr79GwDufwS0/RyDkBj+nKyxypnY3IMDF39dwI9mUlf/JIYRZA82VsSvEKakFF8h1B80aNx5j3nRKylrAk9f/bYQHVD0CIUX4D8WTbmvnTscgpKzctHiCLMUJ6Y4FzjI7F5TwBvc370TTKYkjPGi9FkF+h51TlOmdim6ZcZMpO0FziP79N9zLmRtdsY0rqUMlkBLAkPObblfNha6ZCyaBUMHSZ3TkvytayoNct/wdQg6J7TWKDnFH9ntDpmw0YEemJRr4UUUb9nP4i6HF0QTLCoI9ieNrVK4JXn2mC0i+myCygiyORD07Hagt/mcd7xjqsVUlcfbJ75n/8LdHfQy1OML0dah7qcQTXBp7Orpk1k3mbgivG/lPModn5Q9iSfoVLUKD2b+awziaXpmXmXAVF0OIhetZe3X/BbpgW1apMko7a48/LHY6w+BCrv+57vXq/lGKBt02Cp9SHFM6aYilJPl0oPk2qrEzS2lNtaiiDXZlTna44kTUZroxzanxe3f+pAAfiQVDaf37qF3tTwudkMYs+Z98PoiEtPHXM/pfoS7LtiVca1gQ+5fk0XDue6nMFmJiZwVyaFBI/97G2pdpysQ0IcxX6L7r6x+WDObU5fUocRfi8ZP45Z+WwOB0ydOD8zh1ag/xwduf57ExGnMF+RapbHi7eQycflKGxicYOu0WH967rWj2G1VOZb0v7m8S3qBMzuZL8Cp6TTdeWOVU3+s08hMJvM3fZMgnFd3QFAXq00tG4c07N4KlXk8/zth7JPJnudptKpXNbjUXzv9QPccPCypEws2IsV9uEyqwbFDN3AnrDk9PeKDmPRpCjeqQzn+iJRSIuHR1YAxa16ywYfxz1yCRw6pR7hoeyHJ78MCL/85/WOYiiqwRL0MZVW9ncHZZKG2c/UxDH6bYwqn6/wY+l9rjQ3S/H35UgjuVWrMbAd3rXfc7DES53er1eu3v0mROv1afzR5m191GP+Y7reX8+Xm+NA//xVzO5/PJ4oixWmN/tX/8R8RludNKJcNw/78dBkA6zxv4q6GXtF3gAK1pq1rlLJrKwTXx+vcxWm+2Cl4r7HIotniCZq6W3D+q0KXBjUc2wpF2UxdbaQSJIzznGL8SvFi92Rc+FfOujQFnYzedTsXWVcN3XC24K1LVC531znXd4UDps/dvZsm7OOyAAOFHy7Icy2rQuanj201Uz3PcK9oBwE/s+2JOdgXv7w70ZdA7FInsV7rqMnjI/zENoXeFWRm8jvOjNQ6EDcd+Jo7gYK3inzb0PfWN5iKfe7/i6UbeLyYdoe9FfWnf5zxHhGutIODwaVVyg2XxDlAHDnpqbC7kEWKQdnQmKE+EW4XaXIdoUVK8c4yM8GbXNftZHiFkSh6PFdMcEZq88itELmv54VKPoD6Hbpk/BmFfXJZn7e7t6GZ6NQg5jb3r8c3oro7OSLlWa4Bo14A8U+PUZtOb8Qx+v3T/TlPWqNVgx6V9PXrlcaDVdJ8bPQy8b4SseAQPYU/HOOgH4vKbtquORfjOvq/n+5APAsa2FyE89kOn8PkJgibvd3TRwgQNvZDOP13D39neUt07V+hVk7qjLh2uw0+DJf0D9GzwJhpHSikrR7oXx/7k7Xe1hL+ehRCyT4rtMVoDT4TxVAIdNce3WeIBI57JxwLGg1t3NyorlwqQz9kjEHY9TYPG8bXb6NVowEwCHTjaNWr2GoMq1i01bkbI05FLF/RJPMt1Pms267/d/155CF2RqLKzNYgQTNNFs++0MAd1y0ftOixKqKcJdIfWI5rWVLj6kUeI40eTjzWezL9pw1hYseDAV7aXfDV9BDSNeCFT1+M1IRxfuBLfsrBVEGyjMVeo/O5L7jOkU+1O4HJoqDWyIwb/prHCcHmEMP3YTagsAHRX57k3yTCucL4ooEvLgWU1CCIs+i5TryjYJVgcPNX4CRA1ffPsW3usiIsYvCvSdNYtDeE7U16NG08cQR8IDd69+60iz80FEN4XA4WFUx9hVWAu/ea/CH7jqdIl9gZTS4Whdwmvzroxh8hVQHR8IQ1hsVqvd+vsQA8yDpNGYpjxwf8FhhIuMhcR4t2QwidrIYT87/1ioC9CM/Dazy0eeDdUth5dyxehSo9B6NM5CRFITeDC3WsuRriyQhBFhLCP9i588jKI0JPLZnAi2v6iBHImO7y5mvVidBFG8nBoSEqpj6/OxjYohnZigRXYBJauYJgGAhARYbMY3FwpBxF6SxtyUvWmR91i2FtcvGHbclSVUKayjRg8rMOVDMKPq/FoNL4a+BkTYFmgpgVYgdfq0A6Y+4tw4kNEWA9KXxihx/3gITek8Ob2xFBYD7E4XbrjbnqqLj1wk2CGA5ebWZ6qOetzQ+3xUUR4HRS3MELvMxHHiQ+27+EmN+w2CXWbUfawwO8qO8LiCwhn4cee+PKqVQWlFIHwIfTBOISzeoAOQ++VwQoyXV8uwqfBdkfm1xDeh2QNrdeH/+slpXZbhwi7IWbEIRTNQywt+MDdBRehTN0JYAHH8QhBXwTuOwHVEziZ2//lqxQRIbhlN4LUt2MQzooSlc57VaFbgoBbxjL8zyrvIvYFhNhlTzTs4I8ET5PB0J/oRxFhWeAtUDMG4SC8DqJo77HOdb3pgm+BXFuhME/neIS4EyaomnZo3EBPnu4BdnomcBzU+6MYhDCHH2k3AcDdD9QqDdI3pc/APy6ERM0XEA6CTIRhh894wBMkjuAAedGVfycGELneEQjxt7RDFW7swDFAu/dAGmPvMtBgSYyvIMRRe3+f+Sz0HgXdwy6tvQtIHDrYLJvFYswohCgWh3K6mXuL2Oq4QlphvzqYWxt6z01c35W1TP0iQgx0P5ogRy0cM1uFYzeig/82YPEx+42MGvT7bfwXCwP3x+tm89qdpofzGIRUmfDYvHRgJ6N3TXpsb+jb1WRvmuZiCM2odE+9mNA7rFR53luOtZ9Ddlj/40m5CbfUfw59+vSVXRxCFry/T8fUwYTFBGj5L8ZT3M6dCu8AvcNmwet/AivSieOht5n4enGDb8OY7LkEvYmMwragu2Kp2oJcWjsIjg1jW9mqrmOuiQl/QFgwBFL9JY5eW+T2ZEtskcBHJiYtfLPHe5uwaXC85r9dbHX8FI2QdwdkhAIxKeiaykul9E3Qj5kXdGgQqUAnKnUl7tmYthqkgoBwNLoYx+i05pQyRSOhPXjvgYB/jEVrVqMqBM+elAe34/FD06EZZNdQXV2MboIm0OmO6Bs+Lrxtr8nLn4Jh6yWl8nZgAKH/lmbrePZmN5z4GM3Nn45IfzqyF7b0W41GKxzwXrZarXaY7W33j1GFr7Cek1LM/fbh28z9YrHYR2dtnf1istrahqJqurZ5e47aY/xeahZPcPDcWQxdkGpB1Qw7nCf+dhoXT1R5vxhulJKmRCRXv5fATX0/1fa5OX+plP6GlAo9MFtPxdMWjDoSrb/zp+LTjOTy8rpYzP1Cv/8Akcn8uGGdVKON7Y8mbv6ZU/O/BxC2zzxv6OHHHWCSpl6t2Wz8wKMv/+gffTf9P/uETzpU82ttAAAAAElFTkSuQmCC;opacity=50;" vertex="1" parent="PvTTCeZeLut4xboafBoc-115">
          <mxGeometry x="38.366212500000074" y="123.10117468738156" width="198.275" height="198.275" as="geometry" />
        </mxCell>
      </root>
    </mxGraphModel>
  </diagram>
</mxfile>
